<svg version="1.1" xmlns="http://www.w3.org/2000/svg" x="0px" y="0px"
     viewBox="0 0 17.804 17.804" xml:space="preserve">

  <path d="m0.922145,0.043c0.14,-0.071 0.304,-0.051 0.425,0.044l10.777,8.502c0.094,0.074 0.152,0.191 0.152,0.312c0,0.118 -0.059,0.24 -0.152,0.314l-10.778,8.503c-0.072,0.056 -0.162,0.086 -0.25,0.086l-0.175,-0.04c-0.137,-0.065 -0.223,-0.206 -0.223,-0.362l0,-16.999c0,-0.154 0.086,-0.297 0.224,-0.36z"/>
    <path d="m12.616,-0.001088l2.656,0c0.175,0 0.316,0.181 0.316,0.399l0,16.935c0,0.222 -0.142,0.403 -0.316,0.403l-2.656,0c-0.174,0 -0.316,-0.182 -0.316,-0.403l0,-16.934c0,-0.219 0.143,-0.4 0.316,-0.4z"/>

</svg>